<svg width="128" height="38" viewBox="0 0 128 38" fill="none" xmlns="http://www.w3.org/2000/svg">
<path d="M8.07878 30.0113C7.19455 30.0113 6.43261 29.8325 5.79296 29.4751C5.1533 29.1176 4.65475 28.5908 4.2973 27.8948C3.95866 27.1987 3.78934 26.3521 3.78934 25.355V16.9454H1.10844V15.0264H3.78934V10.1444H6.04694V15.0264H10.6186V16.9454H6.04694V25.2421C6.04694 26.1075 6.22566 26.7848 6.58312 27.2739C6.95938 27.7442 7.52378 27.9794 8.27632 27.9794C8.67139 27.9794 9.06647 27.923 9.46155 27.8101C9.87545 27.6784 10.2423 27.5091 10.5621 27.3021L11.2394 29.0518C10.8443 29.334 10.3834 29.5597 9.85663 29.7291C9.32986 29.9172 8.73724 30.0113 8.07878 30.0113ZM14.1518 29.588V8.64873H16.4094V17.1429C16.8421 16.3716 17.4629 15.7602 18.2719 15.3086C19.0809 14.8383 19.9933 14.6031 21.0093 14.6031C22.1192 14.6031 23.0881 14.8665 23.9159 15.3933C24.7437 15.9201 25.3739 16.6726 25.8067 17.6509C26.2582 18.6104 26.4839 19.7486 26.4839 21.0655V29.588H24.2263V21.2066C24.2263 19.758 23.9065 18.6386 23.2669 17.8484C22.646 17.0583 21.7524 16.6632 20.586 16.6632C19.777 16.6632 19.0527 16.8513 18.413 17.2276C17.7922 17.5851 17.303 18.093 16.9456 18.7515C16.5881 19.3911 16.4094 20.1249 16.4094 20.9526V29.588H14.1518ZM36.9322 30.0113C35.8598 30.0113 34.8721 29.8231 33.9691 29.4469C33.0848 29.0706 32.3135 28.5438 31.655 27.8665C30.9966 27.1704 30.4886 26.3615 30.1311 25.4396C29.7737 24.4989 29.595 23.4642 29.595 22.3354C29.595 21.2254 29.7643 20.2095 30.1029 19.2877C30.4604 18.347 30.9495 17.5286 31.5704 16.8325C32.21 16.1364 32.9531 15.6002 33.7997 15.224C34.6463 14.8289 35.5682 14.6314 36.5653 14.6314C37.5248 14.6314 38.409 14.8101 39.218 15.1675C40.0458 15.525 40.7607 16.0235 41.3627 16.6632C41.9647 17.3029 42.4256 18.0648 42.7455 18.949C43.0841 19.8332 43.2534 20.7927 43.2534 21.8275V22.7587H31.9372C32.0125 23.8123 32.2571 24.7341 32.6709 25.5243C33.1036 26.3144 33.6775 26.9259 34.3924 27.3586C35.1073 27.7913 35.9351 28.0076 36.8757 28.0076C37.7976 28.0076 38.5971 27.8195 39.2744 27.4432C39.9705 27.0482 40.5631 26.4743 41.0523 25.7218L42.9712 26.5966C42.595 27.3115 42.1058 27.923 41.5038 28.4309C40.9018 28.9389 40.2057 29.3246 39.4155 29.588C38.6442 29.8702 37.8164 30.0113 36.9322 30.0113ZM36.5653 16.5503C35.794 16.5503 35.0885 16.7385 34.4488 17.1147C33.828 17.491 33.3012 18.0178 32.8685 18.695C32.4546 19.3535 32.1818 20.1249 32.0501 21.0091H40.883C40.8077 20.1249 40.5725 19.3535 40.1775 18.695C39.7824 18.0178 39.2744 17.491 38.6536 17.1147C38.0327 16.7385 37.3366 16.5503 36.5653 16.5503Z" fill="#EA7C2D"/>
<mask id="path-2-outside-1_4_143" maskUnits="userSpaceOnUse" x="46.5639" y="7" width="81" height="29" fill="black">
<rect fill="white" x="46.5639" y="7" width="81" height="29"/>
<path d="M47.5393 29V8.06078H49.7969V29H47.5393ZM56.4209 10.1773C56.4209 10.4595 56.3457 10.7229 56.1951 10.9674C56.0635 11.1932 55.8753 11.3813 55.6307 11.5318C55.405 11.6635 55.151 11.7294 54.8688 11.7294C54.5866 11.7294 54.3232 11.6635 54.0787 11.5318C53.8529 11.3813 53.6648 11.1932 53.5143 10.9674C53.3826 10.7229 53.3167 10.4595 53.3167 10.1773C53.3167 9.89507 53.3826 9.6411 53.5143 9.41534C53.6648 9.17076 53.8529 8.98263 54.0787 8.85094C54.3232 8.70043 54.5866 8.62518 54.8688 8.62518C55.151 8.62518 55.405 8.70043 55.6307 8.85094C55.8753 8.98263 56.0635 9.17076 56.1951 9.41534C56.3457 9.6411 56.4209 9.89507 56.4209 10.1773ZM53.74 29V14.4385H55.9976V29H53.74ZM59.9407 29V8.06078H62.1983V17.0065C62.7251 16.0847 63.44 15.3603 64.343 14.8336C65.2649 14.288 66.2996 14.0152 67.4472 14.0152C68.4067 14.0152 69.3003 14.2127 70.1281 14.6078C70.9559 14.9841 71.6802 15.5203 72.301 16.2164C72.9219 16.9124 73.4016 17.7308 73.7403 18.6715C74.0977 19.5933 74.2764 20.5999 74.2764 21.691C74.2764 22.7822 74.0977 23.7981 73.7403 24.7388C73.4016 25.6794 72.9125 26.4978 72.2728 27.1939C71.652 27.89 70.9183 28.4356 70.0717 28.8307C69.2251 29.2258 68.3126 29.4233 67.3343 29.4233C66.2055 29.4233 65.1802 29.1505 64.2583 28.6049C63.3365 28.0593 62.6122 27.3068 62.0854 26.3473L61.9725 29H59.9407ZM67.0521 27.3632C67.767 27.3632 68.4161 27.2221 68.9993 26.9399C69.6013 26.6577 70.1187 26.2721 70.5514 25.7829C71.0029 25.275 71.351 24.6823 71.5955 24.0051C71.8401 23.309 71.9624 22.547 71.9624 21.7192C71.9624 20.8915 71.8401 20.1389 71.5955 19.4616C71.351 18.7656 71.0029 18.1729 70.5514 17.6838C70.1187 17.1758 69.6013 16.7807 68.9993 16.4985C68.4161 16.2163 67.767 16.0752 67.0521 16.0752C66.3372 16.0752 65.6788 16.2163 65.0767 16.4985C64.4935 16.7807 63.9761 17.1758 63.5246 17.6838C63.0919 18.1729 62.7533 18.7656 62.5087 19.4616C62.2641 20.1389 62.1418 20.8915 62.1418 21.7192C62.1418 22.547 62.2641 23.309 62.5087 24.0051C62.7533 24.6823 63.0919 25.275 63.5246 25.7829C63.9761 26.2721 64.4935 26.6577 65.0767 26.9399C65.6788 27.2221 66.3372 27.3632 67.0521 27.3632ZM77.4955 29V14.4385H79.5273L79.6684 17.1476C80.0259 16.2446 80.5621 15.5391 81.277 15.0311C81.9919 14.5043 82.8291 14.241 83.7886 14.241C84.1084 14.241 84.3906 14.2692 84.6352 14.3256C84.8985 14.3632 85.1243 14.4197 85.3124 14.4949L85.0302 16.6396C84.8233 16.5644 84.6069 16.5174 84.3812 16.4985C84.1554 16.4609 83.9297 16.4421 83.7039 16.4421C82.9137 16.4421 82.2176 16.6396 81.6156 17.0347C81.0324 17.4298 80.5715 17.9942 80.2328 18.7279C79.913 19.4428 79.7531 20.2894 79.7531 21.2677V29H77.4955ZM92.2074 29.4233C91.1914 29.4233 90.2884 29.2352 89.4983 28.8589C88.7081 28.4638 88.0873 27.9276 87.6357 27.2504C87.203 26.5731 86.9867 25.7923 86.9867 24.9081C86.9867 23.9486 87.2312 23.1208 87.7204 22.4247C88.2284 21.7287 88.9339 21.1925 89.8369 20.8162C90.7399 20.4211 91.7935 20.2236 92.9975 20.2236C93.6748 20.2236 94.3615 20.2988 95.0576 20.4493C95.7537 20.5999 96.3745 20.7974 96.9201 21.042V19.9696C96.9201 19.1794 96.7602 18.4928 96.4404 17.9095C96.1394 17.3075 95.7161 16.8466 95.1705 16.5268C94.6249 16.1881 93.9852 16.0188 93.2515 16.0188C92.3673 16.0188 91.5959 16.2258 90.9375 16.6396C90.2978 17.0535 89.8181 17.6368 89.4983 18.3893L87.5229 17.712C87.7862 16.9595 88.1907 16.3104 88.7363 15.7648C89.3007 15.2192 89.9686 14.7959 90.7399 14.4949C91.5301 14.1939 92.3767 14.0434 93.2797 14.0434C94.4462 14.0434 95.4621 14.2974 96.3275 14.8054C97.2117 15.2945 97.889 15.9906 98.3593 16.8936C98.8485 17.7779 99.093 18.822 99.093 20.026V29H97.1176L96.9765 26.7424C96.5627 27.5514 95.9324 28.2004 95.0858 28.6896C94.258 29.1787 93.2985 29.4233 92.2074 29.4233ZM89.2725 24.8234C89.2725 25.369 89.4136 25.8488 89.6958 26.2627C89.978 26.6577 90.3731 26.9682 90.881 27.1939C91.389 27.4197 91.9722 27.5326 92.6307 27.5326C93.4396 27.5326 94.164 27.3538 94.8036 26.9964C95.4621 26.6201 95.9794 26.1216 96.3557 25.5007C96.732 24.8611 96.9201 24.1368 96.9201 23.3278V22.7916C96.2993 22.547 95.669 22.3589 95.0294 22.2272C94.4085 22.0767 93.8159 22.0014 93.2515 22.0014C92.0098 22.0014 91.0315 22.2554 90.3166 22.7634C89.6205 23.2713 89.2725 23.958 89.2725 24.8234ZM102.932 29V14.4385H104.964L105.105 17.1476C105.462 16.2446 105.999 15.5391 106.714 15.0311C107.428 14.5043 108.266 14.241 109.225 14.241C109.545 14.241 109.827 14.2692 110.072 14.3256C110.335 14.3632 110.561 14.4197 110.749 14.4949L110.467 16.6396C110.26 16.5644 110.043 16.5174 109.818 16.4985C109.592 16.4609 109.366 16.4421 109.14 16.4421C108.35 16.4421 107.654 16.6396 107.052 17.0347C106.469 17.4298 106.008 17.9942 105.669 18.7279C105.35 19.4428 105.19 20.2894 105.19 21.2677V29H102.932ZM115.087 35.0391C114.692 35.0391 114.325 34.992 113.986 34.898C113.648 34.8227 113.3 34.691 112.942 34.5029L113.591 32.6968C113.779 32.8097 113.986 32.8944 114.212 32.9508C114.457 33.0072 114.711 33.0355 114.974 33.0355C115.557 33.0355 116.065 32.8473 116.498 32.4711C116.949 32.1136 117.335 31.5398 117.655 30.7496L118.417 28.8589L112.378 14.4385H114.861L119.517 26.4038L123.722 14.4385H126.121L119.63 31.2858C119.141 32.5651 118.52 33.5058 117.768 34.1078C117.015 34.7287 116.122 35.0391 115.087 35.0391Z"/>
</mask>
<path d="M47.5393 29V8.06078H49.7969V29H47.5393ZM56.4209 10.1773C56.4209 10.4595 56.3457 10.7229 56.1951 10.9674C56.0635 11.1932 55.8753 11.3813 55.6307 11.5318C55.405 11.6635 55.151 11.7294 54.8688 11.7294C54.5866 11.7294 54.3232 11.6635 54.0787 11.5318C53.8529 11.3813 53.6648 11.1932 53.5143 10.9674C53.3826 10.7229 53.3167 10.4595 53.3167 10.1773C53.3167 9.89507 53.3826 9.6411 53.5143 9.41534C53.6648 9.17076 53.8529 8.98263 54.0787 8.85094C54.3232 8.70043 54.5866 8.62518 54.8688 8.62518C55.151 8.62518 55.405 8.70043 55.6307 8.85094C55.8753 8.98263 56.0635 9.17076 56.1951 9.41534C56.3457 9.6411 56.4209 9.89507 56.4209 10.1773ZM53.74 29V14.4385H55.9976V29H53.74ZM59.9407 29V8.06078H62.1983V17.0065C62.7251 16.0847 63.44 15.3603 64.343 14.8336C65.2649 14.288 66.2996 14.0152 67.4472 14.0152C68.4067 14.0152 69.3003 14.2127 70.1281 14.6078C70.9559 14.9841 71.6802 15.5203 72.301 16.2164C72.9219 16.9124 73.4016 17.7308 73.7403 18.6715C74.0977 19.5933 74.2764 20.5999 74.2764 21.691C74.2764 22.7822 74.0977 23.7981 73.7403 24.7388C73.4016 25.6794 72.9125 26.4978 72.2728 27.1939C71.652 27.89 70.9183 28.4356 70.0717 28.8307C69.2251 29.2258 68.3126 29.4233 67.3343 29.4233C66.2055 29.4233 65.1802 29.1505 64.2583 28.6049C63.3365 28.0593 62.6122 27.3068 62.0854 26.3473L61.9725 29H59.9407ZM67.0521 27.3632C67.767 27.3632 68.4161 27.2221 68.9993 26.9399C69.6013 26.6577 70.1187 26.2721 70.5514 25.7829C71.0029 25.275 71.351 24.6823 71.5955 24.0051C71.8401 23.309 71.9624 22.547 71.9624 21.7192C71.9624 20.8915 71.8401 20.1389 71.5955 19.4616C71.351 18.7656 71.0029 18.1729 70.5514 17.6838C70.1187 17.1758 69.6013 16.7807 68.9993 16.4985C68.4161 16.2163 67.767 16.0752 67.0521 16.0752C66.3372 16.0752 65.6788 16.2163 65.0767 16.4985C64.4935 16.7807 63.9761 17.1758 63.5246 17.6838C63.0919 18.1729 62.7533 18.7656 62.5087 19.4616C62.2641 20.1389 62.1418 20.8915 62.1418 21.7192C62.1418 22.547 62.2641 23.309 62.5087 24.0051C62.7533 24.6823 63.0919 25.275 63.5246 25.7829C63.9761 26.2721 64.4935 26.6577 65.0767 26.9399C65.6788 27.2221 66.3372 27.3632 67.0521 27.3632ZM77.4955 29V14.4385H79.5273L79.6684 17.1476C80.0259 16.2446 80.5621 15.5391 81.277 15.0311C81.9919 14.5043 82.8291 14.241 83.7886 14.241C84.1084 14.241 84.3906 14.2692 84.6352 14.3256C84.8985 14.3632 85.1243 14.4197 85.3124 14.4949L85.0302 16.6396C84.8233 16.5644 84.6069 16.5174 84.3812 16.4985C84.1554 16.4609 83.9297 16.4421 83.7039 16.4421C82.9137 16.4421 82.2176 16.6396 81.6156 17.0347C81.0324 17.4298 80.5715 17.9942 80.2328 18.7279C79.913 19.4428 79.7531 20.2894 79.7531 21.2677V29H77.4955ZM92.2074 29.4233C91.1914 29.4233 90.2884 29.2352 89.4983 28.8589C88.7081 28.4638 88.0873 27.9276 87.6357 27.2504C87.203 26.5731 86.9867 25.7923 86.9867 24.9081C86.9867 23.9486 87.2312 23.1208 87.7204 22.4247C88.2284 21.7287 88.9339 21.1925 89.8369 20.8162C90.7399 20.4211 91.7935 20.2236 92.9975 20.2236C93.6748 20.2236 94.3615 20.2988 95.0576 20.4493C95.7537 20.5999 96.3745 20.7974 96.9201 21.042V19.9696C96.9201 19.1794 96.7602 18.4928 96.4404 17.9095C96.1394 17.3075 95.7161 16.8466 95.1705 16.5268C94.6249 16.1881 93.9852 16.0188 93.2515 16.0188C92.3673 16.0188 91.5959 16.2258 90.9375 16.6396C90.2978 17.0535 89.8181 17.6368 89.4983 18.3893L87.5229 17.712C87.7862 16.9595 88.1907 16.3104 88.7363 15.7648C89.3007 15.2192 89.9686 14.7959 90.7399 14.4949C91.5301 14.1939 92.3767 14.0434 93.2797 14.0434C94.4462 14.0434 95.4621 14.2974 96.3275 14.8054C97.2117 15.2945 97.889 15.9906 98.3593 16.8936C98.8485 17.7779 99.093 18.822 99.093 20.026V29H97.1176L96.9765 26.7424C96.5627 27.5514 95.9324 28.2004 95.0858 28.6896C94.258 29.1787 93.2985 29.4233 92.2074 29.4233ZM89.2725 24.8234C89.2725 25.369 89.4136 25.8488 89.6958 26.2627C89.978 26.6577 90.3731 26.9682 90.881 27.1939C91.389 27.4197 91.9722 27.5326 92.6307 27.5326C93.4396 27.5326 94.164 27.3538 94.8036 26.9964C95.4621 26.6201 95.9794 26.1216 96.3557 25.5007C96.732 24.8611 96.9201 24.1368 96.9201 23.3278V22.7916C96.2993 22.547 95.669 22.3589 95.0294 22.2272C94.4085 22.0767 93.8159 22.0014 93.2515 22.0014C92.0098 22.0014 91.0315 22.2554 90.3166 22.7634C89.6205 23.2713 89.2725 23.958 89.2725 24.8234ZM102.932 29V14.4385H104.964L105.105 17.1476C105.462 16.2446 105.999 15.5391 106.714 15.0311C107.428 14.5043 108.266 14.241 109.225 14.241C109.545 14.241 109.827 14.2692 110.072 14.3256C110.335 14.3632 110.561 14.4197 110.749 14.4949L110.467 16.6396C110.26 16.5644 110.043 16.5174 109.818 16.4985C109.592 16.4609 109.366 16.4421 109.14 16.4421C108.35 16.4421 107.654 16.6396 107.052 17.0347C106.469 17.4298 106.008 17.9942 105.669 18.7279C105.35 19.4428 105.19 20.2894 105.19 21.2677V29H102.932ZM115.087 35.0391C114.692 35.0391 114.325 34.992 113.986 34.898C113.648 34.8227 113.3 34.691 112.942 34.5029L113.591 32.6968C113.779 32.8097 113.986 32.8944 114.212 32.9508C114.457 33.0072 114.711 33.0355 114.974 33.0355C115.557 33.0355 116.065 32.8473 116.498 32.4711C116.949 32.1136 117.335 31.5398 117.655 30.7496L118.417 28.8589L112.378 14.4385H114.861L119.517 26.4038L123.722 14.4385H126.121L119.63 31.2858C119.141 32.5651 118.52 33.5058 117.768 34.1078C117.015 34.7287 116.122 35.0391 115.087 35.0391Z" fill="#067C7A"/>
<path d="M47.5393 29H46.9514V29.5879H47.5393V29ZM47.5393 8.06078V7.47286H46.9514V8.06078H47.5393ZM49.7969 8.06078H50.3848V7.47286H49.7969V8.06078ZM49.7969 29V29.5879H50.3848V29H49.7969ZM48.1272 29V8.06078H46.9514V29H48.1272ZM47.5393 8.64869H49.7969V7.47286H47.5393V8.64869ZM49.209 8.06078V29H50.3848V8.06078H49.209ZM49.7969 28.4121H47.5393V29.5879H49.7969V28.4121ZM56.1951 10.9674L55.6943 10.6592L55.6873 10.6712L56.1951 10.9674ZM55.6307 11.5318L55.9271 12.0398L55.9389 12.0325L55.6307 11.5318ZM54.0787 11.5318L53.7525 12.021L53.7756 12.0364L53.7999 12.0495L54.0787 11.5318ZM53.5143 10.9674L52.9966 11.2462L53.0097 11.2705L53.0251 11.2936L53.5143 10.9674ZM53.5143 9.41534L53.0134 9.10713L53.0064 9.1191L53.5143 9.41534ZM54.0787 8.85094L54.375 9.35891L54.3868 9.35164L54.0787 8.85094ZM55.6307 8.85094L55.3046 9.34011L55.3277 9.35546L55.352 9.36858L55.6307 8.85094ZM56.1951 9.41534L55.6775 9.69407L55.6906 9.71843L55.706 9.74145L56.1951 9.41534ZM53.74 29H53.1521V29.5879H53.74V29ZM53.74 14.4385V13.8506H53.1521V14.4385H53.74ZM55.9976 14.4385H56.5855V13.8506H55.9976V14.4385ZM55.9976 29V29.5879H56.5855V29H55.9976ZM55.833 10.1773C55.833 10.3487 55.789 10.5057 55.6944 10.6593L56.6959 11.2756C56.9023 10.94 57.0088 10.5703 57.0088 10.1773H55.833ZM55.6873 10.6712C55.609 10.8054 55.4931 10.9262 55.3226 11.0311L55.9389 12.0325C56.2575 11.8364 56.5179 11.581 56.703 11.2637L55.6873 10.6712ZM55.3345 11.024C55.2058 11.0991 55.0555 11.1415 54.8688 11.1415V12.3173C55.2465 12.3173 55.6042 12.228 55.927 12.0397L55.3345 11.024ZM54.8688 11.1415C54.6823 11.1415 54.5149 11.099 54.3574 11.0142L53.7999 12.0495C54.1316 12.2281 54.4909 12.3173 54.8688 12.3173V11.1415ZM54.4048 11.0427C54.2436 10.9352 54.1109 10.8025 54.0034 10.6413L53.0251 11.2936C53.2186 11.5839 53.4622 11.8274 53.7525 12.021L54.4048 11.0427ZM54.0319 10.6887C53.9471 10.5312 53.9046 10.3638 53.9046 10.1773H52.7288C52.7288 10.5552 52.818 10.9145 52.9966 11.2462L54.0319 10.6887ZM53.9046 10.1773C53.9046 9.99059 53.947 9.84029 54.0221 9.71157L53.0064 9.1191C52.8181 9.4419 52.7288 9.79956 52.7288 10.1773H53.9046ZM54.015 9.72346C54.1199 9.55296 54.2407 9.43704 54.3749 9.35876L53.7824 8.34311C53.4651 8.52822 53.2096 8.78857 53.0135 9.10721L54.015 9.72346ZM54.3868 9.35164C54.5404 9.25709 54.6974 9.21309 54.8688 9.21309V8.03726C54.4758 8.03726 54.106 8.14376 53.7705 8.35023L54.3868 9.35164ZM54.8688 9.21309C55.0399 9.21309 55.1795 9.25666 55.3046 9.34011L55.9569 8.36176C55.6305 8.14419 55.2622 8.03726 54.8688 8.03726V9.21309ZM55.352 9.36858C55.4953 9.44573 55.6004 9.55079 55.6775 9.69407L56.7128 9.13661C56.5266 8.79073 56.2554 8.51953 55.9095 8.33329L55.352 9.36858ZM55.706 9.74145C55.7894 9.86663 55.833 10.0062 55.833 10.1773H57.0088C57.0088 9.78392 56.9019 9.41557 56.6843 9.08922L55.706 9.74145ZM54.3279 29V14.4385H53.1521V29H54.3279ZM53.74 15.0264H55.9976V13.8506H53.74V15.0264ZM55.4097 14.4385V29H56.5855V14.4385H55.4097ZM55.9976 28.4121H53.74V29.5879H55.9976V28.4121ZM59.9407 29H59.3528V29.5879H59.9407V29ZM59.9407 8.06078V7.47286H59.3528V8.06078H59.9407ZM62.1983 8.06078H62.7862V7.47286H62.1983V8.06078ZM62.1983 17.0065H61.6104V19.2203L62.7087 17.2982L62.1983 17.0065ZM64.343 14.8336L64.6392 15.3414L64.6424 15.3395L64.343 14.8336ZM70.1281 14.6078L69.8748 15.1385L69.8848 15.143L70.1281 14.6078ZM72.301 16.2164L72.7398 15.825L72.301 16.2164ZM73.7403 18.6715L73.1871 18.8706L73.1895 18.8774L73.1921 18.884L73.7403 18.6715ZM73.7403 24.7388L73.1906 24.5299L73.1871 24.5396L73.7403 24.7388ZM72.2728 27.1939L71.8399 26.7961L71.8341 26.8026L72.2728 27.1939ZM64.2583 28.6049L63.9589 29.1109L64.2583 28.6049ZM62.0854 26.3473L62.6008 26.0644L61.5875 24.2189L61.498 26.3223L62.0854 26.3473ZM61.9725 29V29.5879H62.536L62.5599 29.025L61.9725 29ZM68.9993 26.9399L68.7498 26.4076L68.7432 26.4107L68.9993 26.9399ZM70.5514 25.7829L70.112 25.3923L70.1111 25.3934L70.5514 25.7829ZM71.5955 24.0051L72.1485 24.2048L72.1502 24.1999L71.5955 24.0051ZM71.5955 19.4616L71.0408 19.6565L71.0426 19.6613L71.5955 19.4616ZM70.5514 17.6838L70.1039 18.065L70.1115 18.074L70.1194 18.0826L70.5514 17.6838ZM68.9993 16.4986L68.7432 17.0278L68.7498 17.0309L68.9993 16.4986ZM65.0767 16.4986L64.8272 15.9662L64.8207 15.9693L65.0767 16.4986ZM63.5246 17.6838L63.0852 17.2932L63.0843 17.2943L63.5246 17.6838ZM62.5087 19.4616L63.0617 19.6613L63.0634 19.6565L62.5087 19.4616ZM62.5087 24.0051L61.954 24.2L61.9557 24.2047L62.5087 24.0051ZM63.5246 25.7829L63.0771 26.1642L63.0847 26.1731L63.0926 26.1817L63.5246 25.7829ZM65.0767 26.9399L64.8206 27.4692L64.8272 27.4723L65.0767 26.9399ZM60.5286 29V8.06078H59.3528V29H60.5286ZM59.9407 8.64869H62.1983V7.47286H59.9407V8.64869ZM61.6104 8.06078V17.0065H62.7862V8.06078H61.6104ZM62.7087 17.2982C63.1852 16.4645 63.8268 15.8153 64.6392 15.3414L64.0468 14.3257C63.0531 14.9054 62.265 15.7048 61.6878 16.7148L62.7087 17.2982ZM64.6424 15.3395C65.4672 14.8514 66.3972 14.6031 67.4472 14.6031V13.4273C66.202 13.4273 65.0626 13.7245 64.0436 14.3276L64.6424 15.3395ZM67.4472 14.6031C68.3232 14.6031 69.1298 14.7828 69.8749 15.1384L70.3813 14.0772C69.4708 13.6427 68.4902 13.4273 67.4472 13.4273V14.6031ZM69.8848 15.143C70.6362 15.4846 71.2944 15.971 71.8623 16.6077L72.7398 15.825C72.066 15.0695 71.2756 14.4836 70.3714 14.0726L69.8848 15.143ZM71.8623 16.6077C72.4295 17.2437 72.8721 17.9956 73.1871 18.8706L74.2934 18.4723C73.9311 17.466 73.4142 16.5812 72.7398 15.825L71.8623 16.6077ZM73.1921 18.884C73.5207 19.7314 73.6885 20.665 73.6885 21.691H74.8644C74.8644 20.5347 74.6747 19.4553 74.2884 18.4589L73.1921 18.884ZM73.6885 21.691C73.6885 22.7169 73.5207 23.6614 73.1907 24.5299L74.2898 24.9476C74.6747 23.9348 74.8644 22.8475 74.8644 21.691H73.6885ZM73.1871 24.5396C72.8734 25.4111 72.4237 26.1609 71.8399 26.7961L72.7057 27.5917C73.4013 26.8348 73.9298 25.9478 74.2934 24.9379L73.1871 24.5396ZM71.8341 26.8026C71.2664 27.439 70.5974 27.9365 69.823 28.2979L70.3203 29.3634C71.2391 28.9347 72.0375 28.341 72.7116 27.5852L71.8341 26.8026ZM69.823 28.2979C69.058 28.655 68.2309 28.8354 67.3343 28.8354V30.0112C68.3944 30.0112 69.3922 29.7966 70.3203 29.3634L69.823 28.2979ZM67.3343 28.8354C66.305 28.8354 65.384 28.588 64.5578 28.099L63.9589 29.1109C64.9764 29.713 66.1061 30.0112 67.3343 30.0112V28.8354ZM64.5578 28.099C63.7286 27.6083 63.078 26.9336 62.6008 26.0644L61.5701 26.6303C62.1464 27.68 62.9443 28.5104 63.9589 29.1109L64.5578 28.099ZM61.498 26.3223L61.3851 28.975L62.5599 29.025L62.6728 26.3723L61.498 26.3223ZM61.9725 28.4121H59.9407V29.5879H61.9725V28.4121ZM67.0521 27.9512C67.8464 27.9512 68.5844 27.7938 69.2554 27.4692L68.7432 26.4107C68.2478 26.6504 67.6876 26.7753 67.0521 26.7753V27.9512ZM69.2488 27.4723C69.9222 27.1566 70.5049 26.7228 70.9917 26.1725L70.1111 25.3934C69.7325 25.8213 69.2805 26.1588 68.7498 26.4076L69.2488 27.4723ZM70.9908 26.1735C71.4949 25.6064 71.8801 24.9481 72.1485 24.2047L71.0426 23.8054C70.8218 24.4166 70.511 24.9435 70.112 25.3923L70.9908 26.1735ZM72.1502 24.1999C72.4193 23.4341 72.5503 22.6054 72.5503 21.7192H71.3745C71.3745 22.4887 71.2609 23.1838 71.0409 23.8102L72.1502 24.1999ZM72.5503 21.7192C72.5503 20.8334 72.4194 20.0121 72.1485 19.262L71.0426 19.6613C71.2608 20.2658 71.3745 20.9495 71.3745 21.7192H72.5503ZM72.1502 19.2668C71.882 18.5033 71.4949 17.8391 70.9834 17.285L70.1194 18.0826C70.5109 18.5067 70.82 19.0278 71.0409 19.6565L72.1502 19.2668ZM70.9989 17.3025C70.512 16.7309 69.9272 16.2842 69.2488 15.9662L68.7498 17.0309C69.2755 17.2773 69.7254 17.6208 70.1039 18.065L70.9989 17.3025ZM69.2554 15.9693C68.5844 15.6447 67.8464 15.4873 67.0521 15.4873V16.6632C67.6876 16.6632 68.2478 16.788 68.7432 17.0278L69.2554 15.9693ZM67.0521 15.4873C66.2576 15.4873 65.5131 15.6447 64.8272 15.9662L65.3263 17.0309C65.8444 16.788 66.4169 16.6632 67.0521 16.6632V15.4873ZM64.8207 15.9693C64.1644 16.2869 63.5856 16.7303 63.0852 17.2932L63.964 18.0744C64.3667 17.6214 64.8226 17.2746 65.3328 17.0278L64.8207 15.9693ZM63.0843 17.2943C62.5951 17.8472 62.2205 18.5083 61.954 19.2668L63.0634 19.6565C63.286 19.0228 63.5887 18.4987 63.965 18.0733L63.0843 17.2943ZM61.9557 19.262C61.6849 20.0121 61.5539 20.8334 61.5539 21.7192H62.7298C62.7298 20.9495 62.8434 20.2658 63.0617 19.6613L61.9557 19.262ZM61.5539 21.7192C61.5539 22.6054 61.6849 23.4341 61.954 24.1999L63.0634 23.8102C62.8433 23.1838 62.7298 22.4887 62.7298 21.7192H61.5539ZM61.9557 24.2047C62.2224 24.9431 62.5951 25.5984 63.0771 26.1642L63.9722 25.4017C63.5887 24.9515 63.2842 24.4216 63.0617 23.8054L61.9557 24.2047ZM63.0926 26.1817C63.5927 26.7234 64.1693 27.154 64.8207 27.4692L65.3328 26.4107C64.8177 26.1615 64.3596 25.8207 63.9566 25.3842L63.0926 26.1817ZM64.8272 27.4723C65.5131 27.7938 66.2576 27.9512 67.0521 27.9512V26.7753C66.4169 26.7753 65.8444 26.6505 65.3263 26.4076L64.8272 27.4723ZM77.4955 29H76.9076V29.5879H77.4955V29ZM77.4955 14.4385V13.8506H76.9076V14.4385H77.4955ZM79.5273 14.4385L80.1145 14.4079L80.0854 13.8506H79.5273V14.4385ZM79.6684 17.1476L79.0813 17.1782L80.2151 17.364L79.6684 17.1476ZM81.277 15.0311L81.6175 15.5104L81.6257 15.5044L81.277 15.0311ZM84.6352 14.3256L84.503 14.8985L84.5273 14.9041L84.552 14.9076L84.6352 14.3256ZM85.3124 14.4949L85.8953 14.5716L85.9549 14.1187L85.5308 13.9491L85.3124 14.4949ZM85.0302 16.6397L84.8293 17.1922L85.5176 17.4424L85.6131 16.7163L85.0302 16.6397ZM84.3812 16.4986L84.2845 17.0785L84.3083 17.0824L84.3323 17.0844L84.3812 16.4986ZM81.6156 17.0347L81.293 16.5431L81.2859 16.548L81.6156 17.0347ZM80.2328 18.7279L79.699 18.4815L79.6962 18.4878L80.2328 18.7279ZM79.7531 29V29.5879H80.341V29H79.7531ZM78.0834 29V14.4385H76.9076V29H78.0834ZM77.4955 15.0264H79.5273V13.8506H77.4955V15.0264ZM78.9402 14.4691L79.0813 17.1782L80.2556 17.117L80.1145 14.4079L78.9402 14.4691ZM80.2151 17.364C80.5354 16.5549 81.0051 15.9455 81.6175 15.5104L80.9365 14.5519C80.1191 15.1326 79.5164 15.9343 79.1218 16.9312L80.2151 17.364ZM81.6257 15.5044C82.2313 15.0582 82.9439 14.8289 83.7886 14.8289V13.653C82.7143 13.653 81.7524 13.9505 80.9282 14.5578L81.6257 15.5044ZM83.7886 14.8289C84.0754 14.8289 84.3117 14.8543 84.503 14.8985L84.7673 13.7528C84.4695 13.684 84.1414 13.653 83.7886 13.653V14.8289ZM84.552 14.9076C84.7826 14.9406 84.9605 14.9874 85.0941 15.0408L85.5308 13.9491C85.2881 13.852 85.0145 13.7859 84.7183 13.7436L84.552 14.9076ZM84.7295 14.4182L84.4473 16.563L85.6131 16.7163L85.8953 14.5716L84.7295 14.4182ZM85.2311 16.0871C84.9738 15.9936 84.7062 15.9357 84.43 15.9127L84.3323 17.0844C84.5077 17.099 84.6728 17.1352 84.8293 17.1922L85.2311 16.0871ZM84.4778 15.9186C84.2206 15.8758 83.9625 15.8542 83.7039 15.8542V17.03C83.8968 17.03 84.0903 17.0461 84.2845 17.0785L84.4778 15.9186ZM83.7039 15.8542C82.8107 15.8542 82.0002 16.0792 81.293 16.5432L81.9382 17.5263C82.4351 17.2001 83.0167 17.03 83.7039 17.03V15.8542ZM81.2859 16.548C80.6016 17.0115 80.0758 17.6652 79.699 18.4816L80.7666 18.9743C81.0671 18.3232 81.4632 17.8481 81.9453 17.5215L81.2859 16.548ZM79.6962 18.4878C79.3353 19.2946 79.1652 20.2267 79.1652 21.2677H80.341C80.341 20.3522 80.4908 19.5911 80.7695 18.968L79.6962 18.4878ZM79.1652 21.2677V29H80.341V21.2677H79.1652ZM79.7531 28.4121H77.4955V29.5879H79.7531V28.4121ZM89.4982 28.8589L89.2353 29.3848L89.2455 29.3897L89.4982 28.8589ZM87.6357 27.2504L87.1402 27.5669L87.1466 27.5765L87.6357 27.2504ZM87.7204 22.4247L87.2454 22.0781L87.2394 22.0867L87.7204 22.4247ZM89.8369 20.8162L90.063 21.359L90.0725 21.3548L89.8369 20.8162ZM95.0576 20.4493L94.9333 21.024L95.0576 20.4493ZM96.9201 21.042L96.6796 21.5784L97.508 21.9498V21.042H96.9201ZM96.4404 17.9095L95.9145 18.1725L95.9195 18.1825L95.9249 18.1922L96.4404 17.9095ZM95.1705 16.5268L94.8604 17.0263L94.8667 17.0302L94.8731 17.034L95.1705 16.5268ZM90.9375 16.6397L90.6246 16.1419L90.6181 16.1461L90.9375 16.6397ZM89.4982 18.3893L89.3076 18.9454L89.8253 19.1229L90.0393 18.6192L89.4982 18.3893ZM87.5229 17.712L86.9679 17.5178L86.7725 18.0763L87.3322 18.2681L87.5229 17.712ZM88.7363 15.7648L88.3276 15.3421L88.3206 15.3491L88.7363 15.7648ZM90.7399 14.4949L90.5306 13.9455L90.5262 13.9472L90.7399 14.4949ZM96.3275 14.8054L96.0299 15.3124L96.0363 15.3162L96.0429 15.3198L96.3275 14.8054ZM98.3593 16.8936L97.8379 17.1652L97.8413 17.1718L97.8449 17.1782L98.3593 16.8936ZM99.093 29V29.5879H99.681V29H99.093ZM97.1176 29L96.5309 29.0367L96.5653 29.5879H97.1176V29ZM96.9765 26.7424L97.5633 26.7057L97.4296 24.5661L96.4532 26.4746L96.9765 26.7424ZM95.0858 28.6896L94.7917 28.1805L94.7867 28.1834L95.0858 28.6896ZM89.6958 26.2627L89.2099 26.5939L89.2174 26.6044L89.6958 26.2627ZM90.881 27.1939L91.1198 26.6567L90.881 27.1939ZM94.8036 26.9964L95.0904 27.5096L95.0953 27.5068L94.8036 26.9964ZM96.3557 25.5007L96.8585 25.8055L96.8624 25.7988L96.3557 25.5007ZM96.9201 22.7916H97.508V22.3913L97.1356 22.2446L96.9201 22.7916ZM95.0294 22.2272L94.8909 22.7986L94.9008 22.801L94.9108 22.803L95.0294 22.2272ZM90.3166 22.7634L89.9761 22.2841L89.9701 22.2885L90.3166 22.7634ZM92.2074 28.8354C91.2649 28.8354 90.4505 28.6612 89.751 28.3281L89.2455 29.3897C90.1264 29.8092 91.118 30.0112 92.2074 30.0112V28.8354ZM89.7612 28.3331C89.0545 27.9797 88.5149 27.5092 88.1249 26.9242L87.1466 27.5765C87.6596 28.3461 88.3617 28.9479 89.2353 29.3847L89.7612 28.3331ZM88.1312 26.9338C87.7648 26.3604 87.5746 25.6918 87.5746 24.9081H86.3988C86.3988 25.8928 86.6412 26.7857 87.1403 27.5669L88.1312 26.9338ZM87.5746 24.9081C87.5746 24.0535 87.7905 23.3475 88.2014 22.7628L87.2394 22.0867C86.672 22.8942 86.3988 23.8437 86.3988 24.9081H87.5746ZM88.1953 22.7713C88.6316 22.1734 89.2456 21.6995 90.063 21.3589L89.6108 20.2735C88.6222 20.6854 87.8251 21.2839 87.2455 22.0782L88.1953 22.7713ZM90.0725 21.3548C90.8867 20.9986 91.857 20.8115 92.9975 20.8115V19.6357C91.7299 19.6357 90.5931 19.8436 89.6012 20.2776L90.0725 21.3548ZM92.9975 20.8115C93.6309 20.8115 94.276 20.8819 94.9333 21.024L95.1818 19.8747C94.447 19.7158 93.7187 19.6357 92.9975 19.6357V20.8115ZM94.9333 21.024C95.5968 21.1674 96.1776 21.3534 96.6796 21.5784L97.1606 20.5055C96.5714 20.2414 95.9106 20.0323 95.1818 19.8747L94.9333 21.024ZM97.508 21.042V19.9696H96.3322V21.042H97.508ZM97.508 19.9696C97.508 19.0992 97.3314 18.3117 96.9559 17.6269L95.9249 18.1922C96.189 18.6739 96.3322 19.2597 96.3322 19.9696H97.508ZM96.9662 17.6466C96.6177 16.9496 96.118 16.4007 95.4678 16.0196L94.8731 17.034C95.3141 17.2924 95.661 17.6654 95.9145 18.1725L96.9662 17.6466ZM95.4805 16.0273C94.8291 15.6229 94.0788 15.4309 93.2515 15.4309V16.6067C93.8916 16.6067 94.4206 16.7533 94.8604 17.0263L95.4805 16.0273ZM93.2515 15.4309C92.2721 15.4309 91.3891 15.6613 90.6246 16.1419L91.2503 17.1374C91.8027 16.7902 92.4624 16.6067 93.2515 16.6067V15.4309ZM90.6181 16.1461C89.8726 16.6285 89.3194 17.3071 88.9572 18.1593L90.0393 18.6192C90.3168 17.9664 90.7231 17.4786 91.2569 17.1332L90.6181 16.1461ZM89.6889 17.8332L87.7135 17.1559L87.3322 18.2681L89.3076 18.9454L89.6889 17.8332ZM88.0778 17.9062C88.313 17.2342 88.671 16.6616 89.152 16.1805L88.3206 15.3491C87.7105 15.9592 87.2595 16.6848 86.9679 17.5178L88.0778 17.9062ZM89.1449 16.1875C89.6503 15.6991 90.2509 15.3169 90.9537 15.0426L90.5262 13.9472C89.6863 14.275 88.9512 14.7394 88.3277 15.3421L89.1449 16.1875ZM90.9492 15.0443C91.6681 14.7705 92.4433 14.6313 93.2797 14.6313V13.4555C92.3101 13.4555 91.3921 13.6174 90.5306 13.9455L90.9492 15.0443ZM93.2797 14.6313C94.3587 14.6313 95.2685 14.8655 96.0299 15.3124L96.6251 14.2983C95.6557 13.7293 94.5336 13.4555 93.2797 13.4555V14.6313ZM96.0429 15.3198C96.8252 15.7526 97.4205 16.3638 97.8379 17.1652L98.8808 16.6221C98.3575 15.6174 97.5982 14.8364 96.6121 14.2909L96.0429 15.3198ZM97.8449 17.1782C98.2774 17.96 98.5051 18.9025 98.5051 20.026H99.681C99.681 18.7415 99.4196 17.5957 98.8738 16.609L97.8449 17.1782ZM98.5051 20.026V29H99.681V20.026H98.5051ZM99.093 28.4121H97.1176V29.5879H99.093V28.4121ZM97.7044 28.9633L97.5633 26.7057L96.3898 26.7791L96.5309 29.0367L97.7044 28.9633ZM96.4532 26.4746C96.0948 27.175 95.548 27.7435 94.7917 28.1805L95.3799 29.1986C96.3168 28.6573 97.0305 27.9277 97.4999 27.0102L96.4532 26.4746ZM94.7867 28.1834C94.0612 28.6121 93.2078 28.8354 92.2074 28.8354V30.0112C93.3893 30.0112 94.4548 29.7453 95.3849 29.1957L94.7867 28.1834ZM88.6846 24.8234C88.6846 25.4762 88.8553 26.0736 89.21 26.5939L90.1815 25.9315C89.9719 25.6239 89.8604 25.2619 89.8604 24.8234H88.6846ZM89.2174 26.6044C89.569 27.0966 90.0525 27.4691 90.6423 27.7312L91.1198 26.6567C90.6936 26.4673 90.387 26.2189 90.1742 25.9209L89.2174 26.6044ZM90.6423 27.7312C91.238 27.9959 91.9049 28.1205 92.6307 28.1205V26.9446C92.0395 26.9446 91.54 26.8434 91.1198 26.6567L90.6423 27.7312ZM92.6307 28.1205C93.5294 28.1205 94.3542 27.921 95.0904 27.5096L94.5168 26.4832C93.9737 26.7867 93.3499 26.9446 92.6307 26.9446V28.1205ZM95.0953 27.5068C95.8364 27.0833 96.4281 26.5155 96.8585 25.8054L95.8529 25.196C95.5308 25.7276 95.0877 26.1569 94.5119 26.4859L95.0953 27.5068ZM96.8624 25.7988C97.2966 25.0608 97.508 24.2318 97.508 23.3278H96.3322C96.3322 24.0417 96.1674 24.6614 95.849 25.2026L96.8624 25.7988ZM97.508 23.3278V22.7916H96.3322V23.3278H97.508ZM97.1356 22.2446C96.484 21.9879 95.8214 21.79 95.1479 21.6514L94.9108 22.803C95.5167 22.9278 96.1145 23.1061 96.7046 23.3386L97.1356 22.2446ZM95.1679 21.6558C94.5075 21.4958 93.8682 21.4135 93.2515 21.4135V22.5894C93.7636 22.5894 94.3095 22.6576 94.8909 22.7986L95.1679 21.6558ZM93.2515 21.4135C91.9368 21.4135 90.8241 21.6816 89.9761 22.2841L90.6572 23.2426C91.239 22.8293 92.0829 22.5894 93.2515 22.5894V21.4135ZM89.9701 22.2885C89.1215 22.9077 88.6846 23.7712 88.6846 24.8234H89.8604C89.8604 24.1448 90.1195 23.635 90.6632 23.2383L89.9701 22.2885ZM102.932 29H102.344V29.5879H102.932V29ZM102.932 14.4385V13.8506H102.344V14.4385H102.932ZM104.964 14.4385L105.551 14.4079L105.522 13.8506H104.964V14.4385ZM105.105 17.1476L104.518 17.1782L105.652 17.364L105.105 17.1476ZM106.714 15.0311L107.054 15.5104L107.062 15.5044L106.714 15.0311ZM110.072 14.3256L109.94 14.8985L109.964 14.9041L109.989 14.9076L110.072 14.3256ZM110.749 14.4949L111.332 14.5716L111.391 14.1187L110.967 13.9491L110.749 14.4949ZM110.467 16.6397L110.266 17.1922L110.954 17.4424L111.05 16.7163L110.467 16.6397ZM109.818 16.4986L109.721 17.0785L109.745 17.0824L109.769 17.0844L109.818 16.4986ZM107.052 17.0347L106.73 16.5431L106.722 16.548L107.052 17.0347ZM105.669 18.7279L105.136 18.4815L105.133 18.4878L105.669 18.7279ZM105.19 29V29.5879H105.778V29H105.19ZM103.52 29V14.4385H102.344V29H103.52ZM102.932 15.0264H104.964V13.8506H102.932V15.0264ZM104.377 14.4691L104.518 17.1782L105.692 17.117L105.551 14.4079L104.377 14.4691ZM105.652 17.364C105.972 16.5549 106.442 15.9455 107.054 15.5104L106.373 14.5519C105.556 15.1326 104.953 15.9343 104.558 16.9312L105.652 17.364ZM107.062 15.5044C107.668 15.0582 108.38 14.8289 109.225 14.8289V13.653C108.151 13.653 107.189 13.9505 106.365 14.5578L107.062 15.5044ZM109.225 14.8289C109.512 14.8289 109.748 14.8543 109.94 14.8985L110.204 13.7528C109.906 13.684 109.578 13.653 109.225 13.653V14.8289ZM109.989 14.9076C110.219 14.9406 110.397 14.9874 110.531 15.0408L110.967 13.9491C110.725 13.852 110.451 13.7859 110.155 13.7436L109.989 14.9076ZM110.166 14.4182L109.884 16.563L111.05 16.7163L111.332 14.5716L110.166 14.4182ZM110.668 16.0871C110.41 15.9936 110.143 15.9357 109.867 15.9127L109.769 17.0844C109.944 17.099 110.109 17.1352 110.266 17.1922L110.668 16.0871ZM109.914 15.9186C109.657 15.8758 109.399 15.8542 109.14 15.8542V17.03C109.333 17.03 109.527 17.0461 109.721 17.0785L109.914 15.9186ZM109.14 15.8542C108.247 15.8542 107.437 16.0792 106.73 16.5432L107.375 17.5263C107.872 17.2001 108.453 17.03 109.14 17.03V15.8542ZM106.722 16.548C106.038 17.0115 105.512 17.6652 105.136 18.4816L106.203 18.9743C106.504 18.3232 106.9 17.8481 107.382 17.5215L106.722 16.548ZM105.133 18.4878C104.772 19.2946 104.602 20.2267 104.602 21.2677H105.778C105.778 20.3522 105.927 19.5911 106.206 18.968L105.133 18.4878ZM104.602 21.2677V29H105.778V21.2677H104.602ZM105.19 28.4121H102.932V29.5879H105.19V28.4121ZM113.986 34.898L114.144 34.3315L114.129 34.3274L114.114 34.3241L113.986 34.898ZM112.942 34.5029L112.389 34.3041L112.216 34.7851L112.668 35.0232L112.942 34.5029ZM113.591 32.6968L113.894 32.1927L113.28 31.8245L113.038 32.498L113.591 32.6968ZM114.212 32.9508L114.07 33.5213L114.08 33.5237L114.212 32.9508ZM116.498 32.4711L116.133 32.0101L116.122 32.0185L116.112 32.0274L116.498 32.4711ZM117.655 30.7496L118.2 30.9702L118.2 30.9694L117.655 30.7496ZM118.417 28.8589L118.962 29.0786L119.052 28.8546L118.959 28.6318L118.417 28.8589ZM112.378 14.4385V13.8506H111.494L111.836 14.6656L112.378 14.4385ZM114.861 14.4385L115.409 14.2253L115.263 13.8506H114.861V14.4385ZM119.517 26.4038L118.97 26.617L119.546 28.0971L120.072 26.5987L119.517 26.4038ZM123.722 14.4385V13.8506H123.306L123.168 14.2436L123.722 14.4385ZM126.121 14.4385L126.67 14.6498L126.977 13.8506H126.121V14.4385ZM119.63 31.2858L119.082 31.0745L119.081 31.0759L119.63 31.2858ZM117.768 34.1078L117.401 33.6487L117.394 33.6543L117.768 34.1078ZM115.087 34.4512C114.739 34.4512 114.425 34.4097 114.144 34.3315L113.829 35.4644C114.225 35.5744 114.645 35.627 115.087 35.627V34.4512ZM114.114 34.3241C113.834 34.2618 113.535 34.1504 113.216 33.9826L112.668 35.0232C113.065 35.2317 113.462 35.3836 113.859 35.4719L114.114 34.3241ZM113.495 34.7017L114.145 32.8956L113.038 32.498L112.389 34.3041L113.495 34.7017ZM113.289 33.201C113.53 33.3454 113.791 33.4515 114.07 33.5212L114.355 32.3804C114.182 32.3372 114.029 32.274 113.894 32.1927L113.289 33.201ZM114.08 33.5237C114.37 33.5906 114.668 33.6234 114.974 33.6234V32.4475C114.753 32.4475 114.543 32.4239 114.344 32.3779L114.08 33.5237ZM114.974 33.6234C115.696 33.6234 116.342 33.3857 116.884 32.9147L116.112 32.0274C115.788 32.3089 115.418 32.4475 114.974 32.4475V33.6234ZM116.863 32.932C117.424 32.4882 117.859 31.8126 118.2 30.9702L117.11 30.5291C116.811 31.267 116.475 31.7391 116.133 32.0101L116.863 32.932ZM118.2 30.9694L118.962 29.0786L117.872 28.6392L117.11 30.5299L118.2 30.9694ZM118.959 28.6318L112.92 14.2114L111.836 14.6656L117.875 29.086L118.959 28.6318ZM112.378 15.0264H114.861V13.8506H112.378V15.0264ZM114.313 14.6517L118.97 26.617L120.065 26.1905L115.409 14.2253L114.313 14.6517ZM120.072 26.5987L124.277 14.6334L123.168 14.2436L118.963 26.2088L120.072 26.5987ZM123.722 15.0264H126.121V13.8506H123.722V15.0264ZM125.572 14.2271L119.082 31.0745L120.179 31.4972L126.67 14.6498L125.572 14.2271ZM119.081 31.0759C118.615 32.2964 118.044 33.134 117.401 33.6487L118.135 34.5669C118.997 33.8776 119.668 32.8339 120.179 31.4958L119.081 31.0759ZM117.394 33.6543C116.753 34.1827 115.994 34.4512 115.087 34.4512V35.627C116.249 35.627 117.277 35.2746 118.142 34.5613L117.394 33.6543Z" fill="#067C7A" mask="url(#path-2-outside-1_4_143)"/>
</svg>
